<svg width="8" height="14" viewBox="0 0 8 14" fill="none" xmlns="http://www.w3.org/2000/svg">
<path fill-rule="evenodd" clip-rule="evenodd" d="M7.37392 5.93534C7.56146 6.1228 7.66687 6.37707 7.66697 6.64224C7.66707 6.9074 7.56185 7.16175 7.37444 7.34934L1.71955 13.0084C1.62734 13.104 1.51702 13.1802 1.39504 13.2327C1.27305 13.2851 1.14184 13.3128 1.00906 13.314C0.876285 13.3152 0.744596 13.2899 0.621682 13.2397C0.498767 13.1894 0.387086 13.1152 0.293159 13.0214C0.199231 12.9275 0.124937 12.8159 0.0746099 12.693C0.0242832 12.5701 -0.00106727 12.4385 3.72899e-05 12.3057C0.00114185 12.1729 0.028679 12.0417 0.0810428 11.9197C0.133407 11.7976 0.209547 11.6873 0.305023 11.595L5.25318 6.64313L0.301341 1.69497C0.119113 1.50644 0.0182247 1.25388 0.0204055 0.991678C0.0225864 0.729481 0.127662 0.478628 0.313001 0.293152C0.49834 0.107675 0.749114 0.00241161 1.01131 3.57663e-05C1.27351 -0.00234008 1.52615 0.0983598 1.71482 0.280448L7.37392 5.93534Z" fill="black"/>
</svg>
