<svg aria-hidden="true" style="position: absolute; width: 0; height: 0; overflow: hidden;" version="1.1" xmlns="http://www.w3.org/2000/svg" xmlns:xlink="http://www.w3.org/1999/xlink">
<defs>
<symbol id="icon-completed-tasks" viewBox="0 0 28 32">
<path fill="#a1a3ab" style="fill: var(--color1, #a1a3ab)" d="M3.111 32h21.778c1.716 0 3.111-1.435 3.111-3.2v-24c0-1.765-1.395-3.2-3.111-3.2h-3.111c0-0.424-0.164-0.831-0.456-1.131s-0.687-0.469-1.1-0.469h-12.444c-0.413 0-0.808 0.169-1.1 0.469s-0.456 0.707-0.456 1.131h-3.111c-1.716 0-3.111 1.435-3.111 3.2v24c0 1.765 1.395 3.2 3.111 3.2zM3.111 4.8h3.111v3.2h15.555v-3.2h3.111v24h-21.778v-24z"></path>
<path fill="#a1a3ab" style="fill: var(--color1, #a1a3ab)" d="M12.908 18.864l-2.744-3.245-2.164 2.559 4.908 5.803 7.969-9.423-2.164-2.559-5.805 6.864z"></path>
</symbol>
<symbol id="icon-plus" viewBox="0 0 32 32">
<path fill="#f24e1e" style="fill: var(--color2, #f24e1e)" d="M29.264 18.009h-11.255v11.255c0 0.597-0.237 1.17-0.659 1.592s-0.995 0.659-1.592 0.659c-0.597 0-1.17-0.237-1.592-0.659s-0.659-0.995-0.659-1.592v-11.255h-11.255c-0.597 0-1.17-0.237-1.592-0.659s-0.659-0.995-0.659-1.592c0-0.597 0.237-1.17 0.659-1.592s0.995-0.659 1.592-0.659h11.255v-11.255c0-0.597 0.237-1.17 0.659-1.592s0.995-0.659 1.592-0.659c0.597 0 1.17 0.237 1.592 0.659s0.659 0.995 0.659 1.592v11.255h11.255c0.597 0 1.17 0.237 1.592 0.659s0.659 0.995 0.659 1.592c0 0.597-0.237 1.17-0.659 1.592s-0.995 0.659-1.592 0.659z"></path>
</symbol>
<symbol id="icon-task-status" viewBox="0 0 32 32">
<path fill="#a1a3ab" style="fill: var(--color1, #a1a3ab)" d="M21.76 27.934l-3.315-3.351-1.805 1.824 5.12 5.175 10.24-10.351-1.805-1.824-8.435 8.526z"></path>
<path fill="#a1a3ab" style="fill: var(--color1, #a1a3ab)" d="M22.109 3.327h-3.316v-1.109c-0.002-0.588-0.235-1.151-0.65-1.566s-0.976-0.65-1.561-0.652h-8.844c-0.586 0.002-1.147 0.236-1.561 0.652s-0.648 0.979-0.649 1.566v1.109h-3.316c-0.586 0.002-1.147 0.236-1.561 0.652s-0.648 0.979-0.649 1.566v23.289c0.002 0.588 0.235 1.151 0.649 1.566s0.976 0.65 1.561 0.652h9.949v-2.218h-9.949v-23.289h3.316v3.327h13.265v-3.327h3.316v12.199h2.211v-12.199c-0.002-0.588-0.235-1.151-0.649-1.566s-0.976-0.65-1.561-0.652zM16.582 6.654h-8.844v-4.436h8.844v4.436z"></path>
</symbol>
<symbol id="icon-three-dots" viewBox="0 0 102 32">
<path fill="none" stroke="#a1a3ab" style="stroke: var(--color1, #a1a3ab)" stroke-linejoin="miter" stroke-linecap="butt" stroke-miterlimit="4" stroke-width="6.4" d="M13.276 26.496c5.565 0 10.076-5.215 10.076-11.648s-4.511-11.648-10.076-11.648c-5.565 0-10.076 5.215-10.076 11.648s4.511 11.648 10.076 11.648z"></path>
<path fill="none" stroke="#a1a3ab" style="stroke: var(--color1, #a1a3ab)" stroke-linejoin="miter" stroke-linecap="butt" stroke-miterlimit="4" stroke-width="6.4" d="M48.545 26.496c5.565 0 10.076-5.215 10.076-11.648s-4.511-11.648-10.076-11.648c-5.565 0-10.076 5.215-10.076 11.648s4.511 11.648 10.076 11.648z"></path>
<path fill="none" stroke="#a1a3ab" style="stroke: var(--color1, #a1a3ab)" stroke-linejoin="miter" stroke-linecap="butt" stroke-miterlimit="4" stroke-width="6.4" d="M83.811 26.496c5.565 0 10.077-5.215 10.077-11.648s-4.511-11.648-10.077-11.648c-5.565 0-10.076 5.215-10.076 11.648s4.511 11.648 10.076 11.648z"></path>
</symbol>
<symbol id="icon-to-do" viewBox="0 0 28 32">
<path fill="#888" style="fill: var(--color3, #888); stroke: var(--color1, #a1a3ab)" stroke="#a1a3ab" stroke-linejoin="miter" stroke-linecap="butt" stroke-miterlimit="4" stroke-width="0.9697" d="M23.128 25.474l-1.38-0.795v-2.762c0-0.078-0.031-0.152-0.086-0.207s-0.13-0.086-0.208-0.086c-0.078 0-0.153 0.031-0.208 0.086s-0.086 0.13-0.086 0.207v2.932c0 0.052 0.014 0.102 0.039 0.147s0.063 0.082 0.108 0.107l1.526 0.88c0.033 0.019 0.070 0.032 0.108 0.037s0.077 0.003 0.114-0.007c0.037-0.010 0.072-0.027 0.103-0.051s0.056-0.053 0.075-0.086c0.039-0.067 0.050-0.147 0.030-0.222s-0.069-0.139-0.137-0.178zM21.455 18.985c-3.245 0-5.875 2.625-5.875 5.863s2.631 5.863 5.875 5.863c3.243-0.004 5.872-2.627 5.875-5.863 0-3.238-2.631-5.863-5.875-5.863zM21.455 30.125c-0.694 0-1.382-0.136-2.024-0.402s-1.225-0.654-1.716-1.144c-0.491-0.49-0.881-1.072-1.146-1.712s-0.403-1.326-0.403-2.020c0-0.693 0.137-1.379 0.403-2.019s0.655-1.222 1.146-1.712c0.491-0.49 1.074-0.879 1.716-1.144s1.329-0.402 2.024-0.402c1.402 0.002 2.746 0.558 3.737 1.547s1.549 2.331 1.551 3.73c0 1.4-0.557 2.742-1.549 3.732s-2.337 1.546-3.739 1.546z"></path>
<path fill="#a1a3ab" style="fill: var(--color1, #a1a3ab)" d="M15.409 2.319h-2.311v-0.773c-0.001-0.41-0.164-0.802-0.453-1.092s-0.68-0.453-1.088-0.454h-6.164c-0.408 0.001-0.8 0.165-1.088 0.454s-0.451 0.682-0.453 1.092v0.773h-2.311c-0.408 0.001-0.8 0.164-1.088 0.454s-0.451 0.682-0.453 1.092v16.232c0.001 0.41 0.164 0.802 0.453 1.092s0.68 0.453 1.088 0.454h6.934v-1.546h-6.934v-16.232h2.311v2.319h9.246v-2.319h2.311v8.502h1.541v-8.502c-0.001-0.41-0.164-0.802-0.453-1.092s-0.68-0.453-1.088-0.454zM11.557 4.638h-6.164v-3.092h6.164v3.092z"></path>
</symbol>
</defs>
</svg>
