<svg aria-hidden="true" style="position: absolute; width: 0; height: 0; overflow: hidden;" version="1.1" xmlns="http://www.w3.org/2000/svg" xmlns:xlink="http://www.w3.org/1999/xlink">
<defs>
<symbol id="icon-delete" viewBox="0 0 25 32">
<path fill="#fff" style="fill: var(--color1, #fff)" d="M1.778 28.444c0 1.956 1.6 3.556 3.556 3.556h14.222c1.956 0 3.556-1.6 3.556-3.556v-17.778c0-1.956-1.6-3.556-3.556-3.556h-14.222c-1.956 0-3.556 1.6-3.556 3.556v17.778zM23.111 1.778h-4.444l-1.262-1.262c-0.32-0.32-0.782-0.516-1.244-0.516h-7.431c-0.462 0-0.924 0.196-1.244 0.516l-1.262 1.262h-4.444c-0.978 0-1.778 0.8-1.778 1.778s0.8 1.778 1.778 1.778h21.333c0.978 0 1.778-0.8 1.778-1.778s-0.8-1.778-1.778-1.778z"></path>
</symbol>
<symbol id="icon-edit" viewBox="0 0 32 32">
<path fill="#fff" style="fill: var(--color1, #fff)" d="M20.211 1.6c2.183 0 4.204 0.691 5.856 1.869l-15.384 15.382c-0.161 0.155-0.289 0.341-0.377 0.547s-0.135 0.426-0.137 0.65c-0.002 0.224 0.041 0.445 0.125 0.652s0.21 0.395 0.368 0.553c0.158 0.158 0.346 0.283 0.553 0.368s0.429 0.127 0.652 0.125c0.224-0.002 0.445-0.048 0.65-0.137s0.391-0.217 0.547-0.377l15.384-15.384c1.218 1.71 1.871 3.757 1.868 5.856v16.842c0 0.893-0.355 1.75-0.987 2.382s-1.488 0.987-2.382 0.987h-23.579c-0.893 0-1.75-0.355-2.382-0.987s-0.987-1.488-0.987-2.382v-23.579c0-0.893 0.355-1.75 0.987-2.382s1.488-0.987 2.382-0.987h16.842zM31.422 0.493c0.316 0.316 0.493 0.744 0.493 1.191s-0.177 0.875-0.493 1.191l-2.976 2.974c-0.656-0.921-1.461-1.726-2.381-2.381l2.974-2.974c0.316-0.316 0.744-0.493 1.191-0.493s0.877 0.177 1.192 0.493z"></path>
</symbol>
</defs>
</svg>
