<svg aria-hidden="true" style="position: absolute; width: 0; height: 0; overflow: hidden;" version="1.1" xmlns="http://www.w3.org/2000/svg">
<defs>

<symbol id="icon-dashboard" viewBox="0 0 32 32">
  <path fill="currentColor" style="fill: var(--color1, currentColor)" d="M17.778 10.667v-10.667h14.222v10.667h-14.222zM0 17.778v-17.778h14.222v17.778h-14.222zM17.778 32v-17.778h14.222v17.778h-14.222zM0 32v-10.667h14.222v10.667h-14.222z"></path>
</symbol>

<symbol id="icon-help" viewBox="0 0 32 32">
  <path fill="currentColor" d="M15.92 25.6c0.56 0 1.034-0.194 1.421-0.581s0.58-0.86 0.579-1.419c0-0.56-0.193-1.034-0.579-1.421s-0.86-0.58-1.421-0.579c-0.56 0-1.033 0.194-1.419 0.581s-0.58 0.86-0.581 1.419c0 0.56 0.194 1.034 0.581 1.421s0.86 0.58 1.419 0.579zM14.48 19.44h2.96c0-0.88 0.1-1.573 0.301-2.080s0.767-1.2 1.699-2.080c0.693-0.693 1.24-1.354 1.64-1.981s0.6-1.38 0.6-2.259c0-1.493-0.547-2.64-1.64-3.44s-2.387-1.2-3.88-1.2c-1.52 0-2.754 0.4-3.701 1.2s-1.607 1.76-1.979 2.88l2.64 1.040c0.133-0.48 0.434-1 0.901-1.56s1.18-0.84 2.139-0.84c0.853 0 1.493 0.234 1.92 0.701s0.64 0.98 0.64 1.539c0 0.533-0.16 1.034-0.48 1.501s-0.72 0.9-1.2 1.299c-1.173 1.040-1.893 1.827-2.16 2.36s-0.4 1.507-0.4 2.92zM16 32c-2.213 0-4.293-0.42-6.24-1.261s-3.64-1.98-5.080-3.419c-1.44-1.44-2.58-3.133-3.419-5.080s-1.26-4.027-1.261-6.24c0-2.213 0.42-4.293 1.261-6.24s1.98-3.64 3.419-5.080c1.44-1.44 3.133-2.58 5.080-3.419s4.027-1.26 6.24-1.261c2.213 0 4.293 0.42 6.24 1.261s3.64 1.98 5.080 3.419c1.44 1.44 2.58 3.133 3.421 5.080s1.26 4.027 1.259 6.24c0 2.213-0.42 4.293-1.261 6.24s-1.98 3.64-3.419 5.080c-1.44 1.44-3.133 2.58-5.080 3.421s-4.027 1.26-6.24 1.259z"></path>
</symbol>

<symbol id="icon-logout" viewBox="0 0 32 32">
  <path fill="currentColor" d="M24.889 8.889l-2.489 2.489 2.844 2.845h-14.578v3.555h14.578l-2.844 2.845 2.489 2.489 7.111-7.111-7.111-7.111zM3.556 3.556h12.444v-3.556h-12.444c-1.956 0-3.556 1.6-3.556 3.556v24.889c0 1.956 1.6 3.556 3.556 3.556h12.444v-3.556h-12.444v-24.889z"></path>
</symbol>

<symbol id="icon-my-task" viewBox="0 0 32 32">
  <path fill="currentColor" d="M6.667 29.333h18.667c1.471 0 2.667-1.196 2.667-2.667v-20c0-1.471-1.196-2.667-2.667-2.667h-2.667c0-0.354-0.141-0.693-0.391-0.943s-0.589-0.391-0.943-0.391h-10.667c-0.354 0-0.693 0.14-0.943 0.391s-0.391 0.589-0.391 0.943h-2.667c-1.471 0-2.667 1.196-2.667 2.667v20c0 1.471 1.196 2.667 2.667 2.667zM6.667 6.667h2.667v2.667h13.333v-2.667h2.667v20h-18.667v-20z"></path>
  <path fill="currentColor" d="M14.667 18.115l-2.391-2.391-1.885 1.885 4.276 4.276 6.943-6.943-1.885-1.885-5.057 5.057z"></path>
</symbol>

<symbol id="icon-settings" viewBox="0 0 32 32">
  <path fill="currentColor" d="M11.622 32l-0.637-5.12c-0.345-0.133-0.67-0.293-0.976-0.48s-0.604-0.387-0.895-0.6l-4.736 2-4.378-7.6 4.099-3.12c-0.027-0.187-0.040-0.367-0.040-0.541v-1.078c0-0.174 0.013-0.354 0.040-0.541l-4.099-3.12 4.378-7.6 4.736 2c0.292-0.213 0.597-0.413 0.915-0.6s0.637-0.347 0.955-0.48l0.637-5.12h8.756l0.637 5.12c0.345 0.133 0.67 0.293 0.976 0.48s0.604 0.387 0.895 0.6l4.736-2 4.378 7.6-4.099 3.12c0.027 0.187 0.040 0.367 0.040 0.541v1.078c0 0.174-0.027 0.354-0.080 0.541l4.099 3.12-4.378 7.6-4.697-2c-0.292 0.213-0.597 0.413-0.915 0.6s-0.637 0.347-0.955 0.48l-0.637 5.12h-8.756zM16.080 21.6c1.539 0 2.852-0.547 3.94-1.64s1.632-2.413 1.632-3.96c0-1.547-0.544-2.867-1.632-3.96s-2.401-1.64-3.94-1.64c-1.565 0-2.886 0.547-3.961 1.64s-1.612 2.413-1.611 3.96c0 1.547 0.537 2.867 1.611 3.96s2.394 1.64 3.961 1.64z"></path>
</symbol>

<symbol id="icon-task-categories" viewBox="0 0 32 32">
  <path fill="currentColor" d="M12.871 26.286h19.129v2.286h-19.129v-2.286zM3.539 27.429l-3.525 2.949 1.927 1.623 5.465-4.571-5.465-4.571-1.94 1.611 3.539 2.96zM12.871 14.857h19.129v2.286h-19.129v-2.286zM3.539 16l-3.525 2.949 1.927 1.623 5.465-4.571-5.465-4.571-1.94 1.611 3.539 2.96zM12.871 3.429h19.129v2.286h-19.129v-2.286zM3.539 4.571l-3.525 2.949 1.927 1.623 5.465-4.571-5.465-4.571-1.94 1.611 3.539 2.96z"></path>
</symbol>

<symbol id="icon-vital-task" viewBox="0 0 32 32">
  <path fill="currentColor" d="M15.8 0c-1.644 0-3.221 0.653-4.384 1.816s-1.816 2.74-1.816 4.384c0 4.672 1.931 10.483 2.901 13.118 0.251 0.672 0.702 1.251 1.293 1.659s1.292 0.623 2.010 0.618c1.446 0 2.782-0.867 3.301-2.269 0.97-2.624 2.896-8.406 2.896-13.126 0-1.644-0.653-3.221-1.816-4.384s-2.74-1.816-4.384-1.816zM15.802 23.997c-1.061 0-2.079 0.422-2.83 1.172s-1.172 1.768-1.172 2.83 0.422 2.079 1.172 2.83c0.75 0.75 1.768 1.172 2.83 1.172s2.079-0.422 2.83-1.172c0.75-0.751 1.172-1.768 1.172-2.83s-0.422-2.079-1.172-2.83c-0.75-0.75-1.768-1.172-2.83-1.172z"></path>
</symbol>
</defs>
</svg>