<svg width="64" height="59" viewBox="0 0 64 59" fill="none" xmlns="http://www.w3.org/2000/svg">
<path d="M63 32.7162V17.5743C63 13.1122 61.2274 8.8329 58.0723 5.67773C54.9171 2.52256 50.6378 0.75 46.1757 0.75H17.5743C13.1122 0.75 8.8329 2.52256 5.67773 5.67773C2.52256 8.8329 0.75 13.1122 0.75 17.5743V41.1284C0.75 43.3378 1.18517 45.5255 2.03068 47.5668C2.87618 49.608 4.11545 51.4627 5.67773 53.025C8.8329 56.1801 13.1122 57.9527 17.5743 57.9527H38.6384" stroke="#A1A3AB" stroke-width="1.5" stroke-linecap="round" stroke-linejoin="round"/>
<path d="M1.62488 46.1757L10.8446 35.4081C12.0554 34.2055 13.6445 33.4582 15.343 33.2927C17.0415 33.1271 18.745 33.5535 20.1653 34.4996C21.5855 35.4457 23.2891 35.872 24.9875 35.7065C26.686 35.5409 28.2751 34.7936 29.486 33.5911L37.3261 25.7509C39.5788 23.4905 42.5615 22.1041 45.7417 21.8391C48.922 21.5741 52.093 22.4477 54.6888 24.304L63 30.7309M18.4492 23.1936C19.1827 23.1892 19.9082 23.0404 20.5842 22.7556C21.2602 22.4708 21.8735 22.0556 22.389 21.5338C22.9046 21.012 23.3123 20.3938 23.5889 19.7144C23.8655 19.035 24.0056 18.3078 24.0012 17.5743C23.9968 16.8408 23.848 16.1153 23.5632 15.4393C23.2784 14.7633 22.8632 14.1501 22.3414 13.6345C21.8196 13.1189 21.2014 12.7112 20.522 12.4346C19.8426 12.158 19.1154 12.0179 18.3819 12.0223C16.9005 12.0312 15.4833 12.6283 14.4421 13.6821C13.4009 14.7359 12.821 16.1602 12.8299 17.6416C12.8388 19.123 13.4358 20.5402 14.4897 21.5814C15.5435 22.6226 16.9678 23.2026 18.4492 23.1936Z" stroke="#A1A3AB" stroke-width="1.5" stroke-linecap="round" stroke-linejoin="round"/>
<path d="M54.4432 39.446V56.2703" stroke="#A1A3AB" stroke-width="1.5" stroke-miterlimit="10" stroke-linecap="round"/>
<path d="M62.1586 46.529L55.5399 39.9103C55.3965 39.765 55.2257 39.6497 55.0374 39.5709C54.8491 39.4922 54.647 39.4517 54.4429 39.4517C54.2388 39.4517 54.0368 39.4922 53.8485 39.5709C53.6601 39.6497 53.4893 39.765 53.346 39.9103L46.7273 46.529" stroke="#A1A3AB" stroke-width="1.5" stroke-linecap="round" stroke-linejoin="round"/>
</svg>
